<svg xmlns="http://www.w3.org/2000/svg" viewBox="0 0 64 64" fill="none" shape-rendering="auto" width="200" height="200"><metadata xmlns:rdf="http://www.w3.org/1999/02/22-rdf-syntax-ns#" xmlns:xsi="http://www.w3.org/2001/XMLSchema-instance" xmlns:dc="http://purl.org/dc/elements/1.1/" xmlns:dcterms="http://purl.org/dc/terms/"><rdf:RDF><rdf:Description><dc:title>Personas by Draftbit</dc:title><dc:creator>Draftbit - draftbit.com</dc:creator><dc:source xsi:type="dcterms:URI">https://personas.draftbit.com/</dc:source><dcterms:license xsi:type="dcterms:URI">https://creativecommons.org/licenses/by/4.0/</dcterms:license><dc:rights>Remix of „Personas by Draftbit” (https://personas.draftbit.com/) by „Draftbit - draftbit.com”, licensed under „CC BY 4.0” (https://creativecommons.org/licenses/by/4.0/)</dc:rights></rdf:Description></rdf:RDF></metadata><mask id="viewboxMask"><rect width="64" height="64" rx="0" ry="0" x="0" y="0" fill="#fff" /></mask><g mask="url(#viewboxMask)"><rect fill="#d1d4f9" width="64" height="64" x="0" y="0" /><path d="M37 46.08V52a5 5 0 0 1-10 0v-5.92A14.04 14.04 0 0 1 18.58 37h-.08a4.5 4.5 0 0 1-.5-8.97V27a14 14 0 1 1 28 0v1.03a4.5 4.5 0 0 1-.58 8.97A14.04 14.04 0 0 1 37 46.08Z" fill="#e5a07e"/><mask id="personas-a" style="mask-type:luminance" maskUnits="userSpaceOnUse" x="14" y="13" width="36" height="44"><path d="M37 46.08V52a5 5 0 0 1-10 0v-5.92A14.04 14.04 0 0 1 18.58 37h-.08a4.5 4.5 0 0 1-.5-8.97V27a14 14 0 1 1 28 0v1.03a4.5 4.5 0 0 1-.58 8.97A14.04 14.04 0 0 1 37 46.08Z" fill="#fff"/></mask><g mask="url(#personas-a)"><path d="M32 13a14 14 0 0 1 14 14v6a14 14 0 1 1-28 0v-6a14 14 0 0 1 14-14Z" fill="#fff" style="mix-blend-mode:overlay" opacity=".36"/></g><g transform="translate(20 24)"><path d="M3.63 4A1 1 0 0 0 4 5.37 4.5 4.5 0 0 0 6.25 6a4.5 4.5 0 0 0 2.25-.63 1 1 0 0 0-1-1.74c-.43.25-.85.37-1.25.37S5.43 3.88 5 3.63A1 1 0 0 0 3.63 4ZM15.63 4A1 1 0 0 0 16 5.37a4.5 4.5 0 0 0 2.25.63 4.5 4.5 0 0 0 2.25-.63 1 1 0 0 0-1-1.74 2.5 2.5 0 0 1-1.25.37c-.4 0-.82-.12-1.25-.37a1 1 0 0 0-1.37.37Z" fill="#1B0640"/></g><g transform="translate(2 2)"><path d="M17 19.8a14 14 0 0 1 26 0l.24.2a1 1 0 0 1 .34.54l.62 2.64a.5.5 0 0 1-.77.52C38.99 20.57 34.5 19 30 19S21 20.57 16.58 23.7a.5.5 0 0 1-.77-.52l.62-2.64a1 1 0 0 1 .34-.55l.24-.19Z" fill="#E15C66"/><path d="M30 15c6.45 0 12.01 4.04 13.25 5 .16.14.28.32.33.53l.62 2.6c.1.46-.44.83-.83.57C41.06 22.18 35.57 19 30 19c-5.57 0-11.05 3.18-13.36 4.7-.4.26-.93-.1-.82-.56l.6-2.6c.05-.21.17-.4.34-.53 1.23-.96 6.8-5 13.24-5Z" fill="#000" style="mix-blend-mode:overlay" opacity=".26"/></g><g transform="translate(11 44)"><path d="M16 7v.47a5 5 0 1 0 10 0V7c7.06 1.52 12.93 6.74 16 13H0C3.07 13.74 8.94 8.52 16 7Z" fill="#456dff"/></g><g transform="translate(23 36)"><path d="M5 4.13a1 1 0 1 0 1 1.74A6 6 0 0 1 9 5a6 6 0 0 1 3 .87 1 1 0 1 0 1-1.74A8 8 0 0 0 9 3a8 8 0 0 0-4 1.13Z" fill="#1B0640"/></g><g transform="translate(24 28)"><path d="M5.29 6.24a.75.75 0 1 1 1.42-.48c.23.7.62 1 1.3 1 .66 0 1.05-.3 1.28-1a.75.75 0 1 1 1.42.48c-.42 1.3-1.37 2.01-2.7 2.01S5.72 7.54 5.3 6.24Z" fill="#000" style="mix-blend-mode:overlay" opacity=".36"/></g><g transform="translate(14 26)"><path fill-rule="evenodd" clip-rule="evenodd" d="M13.61 10.67a3.61 3.61 0 0 0-2.6 3.57v4.67c0 1 .48 1.93 1.37 2.4 1.39.72 3.63 1.7 5.78 1.7 2.14 0 4.26-.96 5.56-1.7A2.62 2.62 0 0 0 25 18.99v-4.74a3.61 3.61 0 0 0-2.61-3.57 18.05 18.05 0 0 0-4.4-.67c-1.45 0-3.07.33-4.39.67Zm.3 1.41c-.8.22-1.32.97-1.32 1.8v2.67c0 1.07.56 2.06 1.54 2.48 1.08.46 2.59.97 3.97.97 1.39 0 2.85-.5 3.9-.97.96-.42 1.5-1.4 1.5-2.44v-2.7c0-.83-.52-1.58-1.33-1.8a16.72 16.72 0 0 0-4.17-.63c-1.51 0-3.05.33-4.1.62Z" fill="#f27d65"/></g></g></svg>